<?xml version="1.0" standalone="no"?>
<!DOCTYPE svg PUBLIC "-//W3C//DTD SVG 20010904//EN"
 "http://www.w3.org/TR/2001/REC-SVG-20010904/DTD/svg10.dtd">
<svg version="1.0" xmlns="http://www.w3.org/2000/svg"
 width="700.000000pt" height="700.000000pt" viewBox="0 0 700.000000 700.000000"
 preserveAspectRatio="xMidYMid meet">
<metadata>
Created by potrace 1.11, written by Peter Selinger 2001-2013
</metadata>
<g transform="translate(0.000000,700.000000) scale(0.100000,-0.100000)"
fill="#000000" stroke="none">
<path d="M6095 6320 c-11 -5 -83 -37 -160 -71 -189 -82 -365 -168 -365 -179 0
-4 18 -47 40 -94 77 -169 115 -283 111 -339 -1 -20 -308 -174 -755 -377 l-269
-123 -166 28 c-231 37 -1109 196 -1384 250 -126 25 -230 45 -232 45 -2 0 -31
53 -66 118 -151 285 -238 378 -420 450 -92 37 -190 59 -294 68 -99 7 -245 -20
-340 -64 -144 -68 -279 -201 -350 -346 -66 -133 -80 -197 -79 -351 0 -119 3
-138 33 -225 40 -120 90 -204 180 -305 39 -44 91 -103 116 -131 l45 -52 -70
-368 c-39 -203 -73 -376 -75 -385 -5 -15 -250 -134 -337 -163 -28 -9 -77 -15
-126 -13 -71 1 -86 -2 -148 -33 -89 -43 -155 -110 -171 -171 -25 -96 -177
-191 -375 -235 -61 -14 -121 -32 -134 -41 -35 -23 -40 -70 -15 -153 26 -86
183 -398 213 -423 31 -26 55 -17 198 73 148 93 283 160 338 167 36 5 44 1 83
-35 43 -39 45 -40 94 -31 28 4 72 15 99 24 73 22 86 20 86 -14 0 -46 -155
-815 -185 -916 -30 -104 -44 -129 -82 -147 -56 -26 -91 -149 -169 -593 -56
-322 -65 -398 -50 -413 51 -51 508 -125 946 -152 301 -18 651 -8 870 26 125
19 398 83 640 150 186 51 237 67 465 148 123 44 142 45 155 9 16 -45 25 -56
61 -76 31 -18 36 -18 64 -4 16 9 89 42 160 74 169 76 455 231 455 246 0 7 -14
35 -30 62 -16 28 -30 59 -30 69 0 36 51 85 233 227 254 198 338 273 522 460
377 385 652 771 893 1254 218 437 346 857 426 1400 45 304 58 480 57 775 l-1
275 -31 97 c-32 101 -78 178 -124 208 -27 18 -29 18 -122 -16 -112 -40 -161
-43 -191 -11 -11 12 -46 80 -76 152 -84 195 -105 220 -161 195z m57 -189 c296
-638 451 -983 455 -1014 4 -27 1 -43 -12 -57 -22 -25 -110 -73 -245 -134
l-104 -48 -20 23 c-40 49 -406 829 -491 1046 -15 39 -25 79 -22 87 8 20 366
196 385 189 8 -4 32 -45 54 -92z m-3892 -137 c195 -46 374 -190 460 -369 49
-103 62 -159 61 -270 0 -142 -34 -267 -109 -403 l-46 -82 -236 467 c-222 439
-296 579 -323 612 -17 20 -88 7 -197 -37 -106 -44 -160 -58 -160 -44 0 27 128
95 230 123 82 22 233 24 320 3z m4366 -119 c27 -27 84 -140 84 -167 0 -30
-111 -89 -172 -90 -35 -1 -48 16 -83 104 -37 94 -33 106 44 146 77 39 94 40
127 7z m-4592 -102 c19 -27 56 -83 82 -126 62 -105 334 -640 334 -659 0 -24
-61 -74 -139 -113 -58 -29 -76 -34 -83 -23 -4 7 -99 193 -210 413 -221 440
-230 467 -177 507 31 24 95 47 131 48 22 0 35 -10 62 -47z m-364 -20 c69 -172
481 -1018 509 -1046 5 -5 72 21 150 57 207 96 267 109 206 47 -36 -39 -174
-108 -250 -126 -33 -8 -101 -14 -151 -15 -187 0 -353 69 -490 205 -91 90 -141
171 -174 283 -19 64 -22 89 -17 185 6 125 24 193 87 323 38 78 83 144 99 144
4 0 18 -26 31 -57z m5028 -205 c13 -13 15 -213 3 -308 -8 -63 -2 -72 -69 96
-44 109 -57 162 -44 181 8 12 69 42 88 43 5 0 15 -5 22 -12z m-873 -80 c18
-40 36 -90 40 -111 l7 -37 -273 -134 c-469 -229 -2277 -1073 -2877 -1343 -201
-90 -235 -103 -249 -91 -22 18 -83 151 -83 181 0 28 83 68 1440 700 432 201
1046 487 1365 636 319 148 584 270 588 270 5 1 23 -32 42 -71z m-2743 -143
c84 -13 329 -56 543 -95 215 -38 496 -89 625 -112 129 -22 238 -44 242 -47 8
-7 -408 -209 -520 -253 l-73 -29 -147 26 c-135 23 -924 176 -929 179 -1 1 15
56 37 121 22 66 40 139 40 162 0 46 8 73 21 73 4 0 77 -11 161 -25z m2864
-152 c39 -41 70 -99 125 -229 60 -142 85 -184 109 -184 33 0 189 60 354 135
89 41 163 70 164 64 6 -16 -16 -199 -44 -369 -179 -1087 -813 -2198 -1624
-2847 -108 -86 -309 -227 -368 -257 -32 -17 -35 -17 -54 1 -66 59 -368 655
-368 725 0 7 35 39 78 71 180 134 574 525 726 721 387 498 717 1308 766 1881
15 182 29 266 46 293 20 31 59 28 90 -5z m-218 -85 c26 -26 5 -120 -30 -139
-22 -12 -141 -3 -173 14 -47 24 -37 55 28 89 84 43 154 57 175 36z m-303 -198
c136 -22 204 -42 231 -67 26 -24 27 -26 20 -116 -7 -103 -21 -164 -43 -189
-36 -41 -137 -30 -583 62 -135 27 -246 50 -247 50 -2 0 -3 7 -3 15 0 21 100
84 250 157 198 97 248 109 375 88z m-2295 -54 c246 -43 630 -120 630 -126 0
-7 -748 -357 -796 -373 -68 -21 -76 -12 -172 181 -122 246 -133 274 -118 303
21 44 50 51 186 45 69 -3 190 -16 270 -30z m-519 -218 c77 -97 219 -332 207
-343 -20 -18 -95 -45 -124 -45 -30 0 -44 7 -75 40 -40 42 -179 306 -179 340 0
20 23 37 69 51 48 14 61 9 102 -43z m-586 -48 c39 -5 96 -10 129 -10 55 0 58
-1 53 -22 -3 -13 -17 -86 -32 -164 -36 -191 -78 -278 -150 -313 -51 -26 -318
-131 -322 -128 -4 5 97 489 115 552 28 91 44 108 97 100 22 -3 72 -10 110 -15z
m2805 -46 c533 -99 756 -152 767 -179 8 -22 -25 -157 -62 -260 -240 -655 -645
-1222 -1173 -1643 -182 -145 -222 -151 -276 -43 -14 27 -33 52 -43 55 -10 4
-46 2 -80 -5 l-63 -13 -31 30 c-54 51 -125 179 -353 634 -250 501 -376 785
-361 811 15 23 355 190 990 487 353 165 389 180 418 176 12 -2 132 -24 267
-50z m-2482 19 c11 -16 61 -102 111 -193 60 -109 91 -173 89 -190 -3 -20 -15
-30 -73 -53 -38 -16 -92 -31 -118 -34 -41 -5 -51 -2 -72 17 -23 22 -25 31 -25
109 1 135 39 371 60 371 5 0 17 -12 28 -27z m-146 -563 c14 -11 40 -42 57 -69
46 -71 165 -341 155 -351 -12 -12 -676 -318 -826 -381 -64 -27 -123 -47 -130
-44 -34 13 -192 323 -200 391 -2 23 4 32 39 56 135 92 813 416 874 418 4 0 18
-9 31 -20z m886 -251 c34 -63 200 -388 368 -723 338 -676 321 -629 239 -670
-86 -43 -86 -44 -578 919 -123 242 -230 457 -237 478 -10 33 -10 41 5 57 18
20 112 61 130 56 6 -1 38 -54 73 -117z m-305 -51 c38 -51 120 -205 336 -630
226 -444 326 -657 347 -740 17 -64 14 -74 -38 -140 -17 -22 -24 -39 -18 -43 5
-3 10 -25 10 -48 0 -23 5 -59 11 -80 21 -78 -7 -105 -168 -157 -346 -113 -839
-192 -1208 -194 -189 -1 -250 6 -258 28 -8 20 18 226 59 475 39 239 202 1143
207 1147 2 2 50 24 108 50 258 114 349 174 349 229 0 58 108 134 192 135 42 0
50 -4 71 -32z m-1678 -155 c42 -59 148 -263 205 -396 56 -132 54 -151 -25
-195 l-60 -34 -25 30 c-34 41 -190 354 -235 469 -39 104 -44 143 -17 143 9 1
28 7 42 15 48 27 77 19 115 -32z m-200 -285 c34 -52 125 -228 125 -242 0 -13
-367 -179 -383 -173 -12 4 -137 294 -137 318 0 23 100 75 215 112 134 43 142
42 180 -15z m1047 -68 c-5 -54 -185 -966 -223 -1130 -47 -208 -85 -336 -102
-347 -19 -12 -103 -1 -251 34 l-68 16 6 64 c9 91 220 1210 230 1220 6 6 302
146 335 159 53 19 77 14 73 -16z m2290 -1251 c212 -414 364 -727 356 -734 -17
-16 -493 -245 -502 -242 -6 3 -137 256 -291 562 -271 542 -279 558 -264 583 8
15 36 43 62 62 58 43 388 221 402 217 6 -2 112 -203 237 -448z m-694 -146 c46
-66 319 -635 334 -699 7 -26 -13 -37 -197 -104 -225 -82 -376 -122 -635 -169
-549 -98 -1051 -133 -1401 -96 -239 25 -487 64 -594 93 -26 7 -30 13 -33 49
-6 80 82 647 119 770 9 28 13 31 42 27 18 -2 131 -18 252 -35 388 -53 653 -59
1034 -23 287 27 507 69 736 139 276 86 312 91 343 48z"/>
<path d="M3890 2191 c-142 -54 -290 -133 -290 -156 0 -8 65 -144 145 -304 97
-193 162 -311 195 -352 28 -34 50 -66 50 -71 0 -5 8 -5 18 0 9 5 37 12 62 16
47 7 320 144 320 160 0 14 -317 622 -356 683 -20 32 -41 53 -51 53 -10 -1 -52
-14 -93 -29z m221 -393 c92 -185 115 -248 99 -277 -12 -24 -88 -65 -138 -76
-58 -12 -75 9 -183 227 -88 179 -111 238 -94 238 3 0 30 -14 60 -31 l54 -31
24 24 c13 13 27 42 31 64 4 21 13 45 19 53 17 20 41 -16 128 -191z"/>
</g>
</svg>
